<svg width="457" height="61" viewBox="0 0 457 61" xmlns="http://www.w3.org/2000/svg">
<path fill="#008E54" d="M108.2 29.5c0 5.1-2.2 10.4-8.4 10.4h-8V19.2H99c5.8 0 9.3 3.3 9.3 10.3zm11 0c0-10.3-6.2-18.6-18.7-18.6H81v37.4h19.5c12.5 0 18.7-8.4 18.7-18.7zm6.3 18.8h31.6v-8.1h-20.8v-6.8h17.3v-7.7h-17.3v-6.8h20.8v-8h-31.6v37.4zm39.3 0h10.8V10.9h-10.8v37.4zm29-18.8c0-6.3 2.2-11.7 8.9-11.7 4.6 0 6.8 2.8 7.6 6h10.8c-.5-8.3-7.7-14.2-18.4-14.2-13.5 0-20 9-20 20s6.5 19.9 20 19.9c11.2 0 17.9-6.3 18.4-14.5h-10.7c-.6 3.3-2.8 6-7.7 6-6.7 0-9-5.2-9-11.5zm60 18.8h10.8V10.9h-10.8V25h-15.9V11h-10.8v37.4H238V33.5h15.9v14.8zm56.5 0h10V10.9h-15.7l-7.4 24.6-7.5-24.6h-15.6v37.4h10v-28l8.6 28h9l8.5-28v28zm40-13.9h-9l4.4-14.1h.1l4.5 14.1zm4.5 13.9h11.6l-14-37.4h-13.2l-14 37.4h11.6l1.9-6.1h14.2l2 6zm42 0h12V10.9h-10.5v23.4h-.1l-15-23.4h-12.5v37.4h10.5V24.6l15.6 23.7zm59.5 0V10.9H446v23.4h-.1l-15-23.4h-12.5v37.4h10.5V24.6l15.6 23.7h12zM59.7 1.3c0-.9-.5-1.3-1.4-1.3H2.2C1.2 0 .8.4.8 1.3v56.2c0 .9.5 1.3 1.4 1.3h56.1c1 0 1.4-.4 1.4-1.3V1.3z"/>
<path fill="#fff" d="M50.5 29.9c0 10.6-9.5 18.6-18.5 18.6-5.4 0-6.5-3.7-13-3.7-1.3 0-2.4.2-3 .3-.8 0-1.7.3-2.4.1-.4-.2-.9-.5-.9-1.6V12.4c0-1 .6-1.6 1.7-1.6h16.4c12.5 0 19.7 8.6 19.7 19.1m-10.2-.6c0-8.3-6-12.8-11.7-12.8h-5.2c-.5 0-.7.2-.7.7v24c0 .5.3.7.8.7h5.3c5.6 0 11.5-4.3 11.5-12.6"/>
</svg>